# xmcd
#
# Track frame offsets:
#	150
#	547
#	23991
#	67600
#	93975
#	121640
#
# Disc length: 1736 seconds
#
# Revision: 1
# Processed by: cddbd v1.5.1PL0 Copyright (c) Steve Scherf et al.
# Submitted via: audiograbber 1.82.01
#
DISCID=3506c606
DTITLE=Albert King - 1971-06-27 - Fillmore East
DYEAR=1900
DGENRE=
TTITLE0=Albert King - Intro by Bill Graham
TTITLE1=Albert King - Knock On Wood (instrumental)
TTITLE2=Albert King - Blues Power
TTITLE3=Albert King - Crosscut Saw
TTITLE4=Albert King - Personal Manager
TTITLE5=Albert King - Instrumental jam
EXTD=
EXTT0=
EXTT1=
EXTT2=
EXTT3=
EXTT4=
EXTT5=
PLAYORDER=
